<?xml version="1.0" standalone="no"?>
<!DOCTYPE svg PUBLIC "-//W3C//DTD SVG 20010904//EN"
 "http://www.w3.org/TR/2001/REC-SVG-20010904/DTD/svg10.dtd">
<svg version="1.0" xmlns="http://www.w3.org/2000/svg"
 width="700.000000pt" height="700.000000pt" viewBox="0 0 700.000000 700.000000"
 preserveAspectRatio="xMidYMid meet">
<metadata>
Created by potrace 1.14, written by Peter Selinger 2001-2017
</metadata>
<g transform="translate(0.000000,700.000000) scale(0.100000,-0.100000)"
fill="#000000" stroke="none">
<path d="M1342 6113 c-160 -29 -331 -161 -406 -313 -36 -74 -41 -89 -55 -180
-9 -60 -6 -4213 3 -4269 37 -222 242 -427 465 -465 56 -9 560 -11 2179 -10
1943 1 2112 3 2167 18 208 59 387 252 421 457 4 24 8 986 8 2138 1 1573 -2
2111 -11 2164 -27 164 -157 334 -313 411 -41 20 -86 38 -100 41 -14 3 -38 8
-55 12 -16 4 -976 7 -2133 7 -1620 1 -2118 -2 -2170 -11z m4195 -576 c5 -6 5
-4068 0 -4074 -6 -5 -4069 -5 -4074 1 -4 3 -6 3827 -3 4048 0 22 5 27 28 30
43 5 4043 0 4049 -5z"/>
<path d="M2067 5234 c-66 -17 -151 -70 -199 -124 -88 -99 -119 -187 -114 -318
5 -99 15 -135 62 -208 106 -168 304 -245 494 -193 133 37 256 158 294 290 72
246 -63 489 -307 555 -61 17 -163 16 -230 -2z"/>
<path d="M4700 5235 c-154 -42 -291 -185 -317 -331 -56 -319 211 -583 524
-517 111 23 208 90 276 193 85 128 88 318 7 453 -47 78 -139 157 -216 187 -70
27 -204 35 -274 15z"/>
<path d="M3410 3929 c-111 -21 -238 -116 -294 -219 -46 -85 -63 -214 -41 -320
20 -100 127 -230 230 -281 327 -160 690 118 624 477 -27 145 -143 277 -289
329 -53 19 -167 26 -230 14z"/>
<path d="M2086 2613 c-135 -31 -256 -137 -311 -273 -24 -62 -29 -203 -9 -272
24 -80 49 -123 107 -181 96 -99 195 -139 330 -133 100 5 111 7 180 41 84 41
158 118 199 206 33 70 41 108 40 196 -2 277 -262 478 -536 416z"/>
<path d="M4737 2619 c-118 -18 -260 -122 -315 -229 -48 -95 -59 -238 -26 -338
110 -327 533 -407 754 -141 69 83 93 152 94 269 1 109 -17 177 -66 248 -101
147 -266 218 -441 191z"/>
</g>
</svg>
